<mxfile host="app.diagrams.net" modified="2022-02-08T02:57:40.771Z" agent="5.0 (Macintosh; Intel Mac OS X 10_15_7) AppleWebKit/537.36 (KHTML, like Gecko) Chrome/97.0.4692.71 Safari/537.36 Edg/97.0.1072.62" etag="8EIPJPbGyrfeu8bE0c1W" version="16.5.3" type="github" pages="2">
  <diagram id="lODO2Ho19lS363PkOUxg" name="Page-1">
    <mxGraphModel dx="946" dy="589" grid="1" gridSize="10" guides="1" tooltips="1" connect="1" arrows="1" fold="1" page="0" pageScale="1" pageWidth="827" pageHeight="1169" math="0" shadow="0">
      <root>
        <mxCell id="0" />
        <mxCell id="1" parent="0" />
        <mxCell id="Elu3GBamNisNBWZrPOnw-19" value="这是第一个" style="swimlane;startSize=20;horizontal=1;containerType=tree;swimlaneHead=0;swimlaneBody=0;noLabel=1;strokeColor=none;" parent="1" vertex="1">
          <mxGeometry x="30" y="31" width="830" height="479" as="geometry" />
        </mxCell>
        <mxCell id="Elu3GBamNisNBWZrPOnw-20" value="" style="edgeStyle=orthogonalEdgeStyle;startArrow=none;endArrow=none;segment=10;rounded=0;arcSize=40;" parent="Elu3GBamNisNBWZrPOnw-19" source="Elu3GBamNisNBWZrPOnw-24" target="Elu3GBamNisNBWZrPOnw-25" edge="1">
          <mxGeometry relative="1" as="geometry" />
        </mxCell>
        <mxCell id="Elu3GBamNisNBWZrPOnw-24" value="元知识" style="swimlane;fontFamily=Helvetica;fontSize=12;fontColor=rgb(0, 0, 0);align=center;strokeColor=rgb(0, 0, 0);fillColor=#A9C4EB;html=1;container=0;startSize=23;" parent="Elu3GBamNisNBWZrPOnw-19" vertex="1">
          <mxGeometry x="120" y="40" width="170" height="100" as="geometry" />
        </mxCell>
        <mxCell id="DxxxkKUG97s_HWiAUXKt-12" value="&lt;div&gt;元知识是“&lt;b&gt;知识的知识&lt;/b&gt;”，&lt;/div&gt;&lt;div&gt;是知识的 mate 信息&lt;/div&gt;&lt;div&gt;用来定义知识的存储、&lt;/div&gt;&lt;div&gt;分类、优先级、合法性等&lt;/div&gt;" style="text;html=1;align=left;verticalAlign=middle;resizable=0;points=[];autosize=1;strokeColor=none;fillColor=none;" parent="Elu3GBamNisNBWZrPOnw-24" vertex="1">
          <mxGeometry x="10" y="30" width="150" height="60" as="geometry" />
        </mxCell>
        <mxCell id="Elu3GBamNisNBWZrPOnw-25" value="schema" style="whiteSpace=wrap;html=1;rounded=1;arcSize=50;align=center;verticalAlign=middle;strokeWidth=1;autosize=1;spacing=4;treeFolding=1;treeMoving=1;newEdgeStyle={&quot;edgeStyle&quot;:&quot;entityRelationEdgeStyle&quot;,&quot;startArrow&quot;:&quot;none&quot;,&quot;endArrow&quot;:&quot;none&quot;,&quot;segment&quot;:10,&quot;curved&quot;:1};fillColor=#fff2cc;strokeColor=#d6b656;" parent="Elu3GBamNisNBWZrPOnw-19" vertex="1">
          <mxGeometry x="360" y="40" width="100" height="30" as="geometry" />
        </mxCell>
        <mxCell id="DxxxkKUG97s_HWiAUXKt-10" value="" style="edgeStyle=orthogonalEdgeStyle;startArrow=none;endArrow=none;segment=10;rounded=0;arcSize=40;" parent="Elu3GBamNisNBWZrPOnw-19" source="Elu3GBamNisNBWZrPOnw-24" target="DxxxkKUG97s_HWiAUXKt-11" edge="1">
          <mxGeometry relative="1" as="geometry">
            <mxPoint x="260" y="280" as="sourcePoint" />
          </mxGeometry>
        </mxCell>
        <mxCell id="DxxxkKUG97s_HWiAUXKt-11" value="规则" style="whiteSpace=wrap;html=1;rounded=1;arcSize=50;align=center;verticalAlign=middle;strokeWidth=1;autosize=1;spacing=4;treeFolding=1;treeMoving=1;newEdgeStyle={&quot;edgeStyle&quot;:&quot;entityRelationEdgeStyle&quot;,&quot;startArrow&quot;:&quot;none&quot;,&quot;endArrow&quot;:&quot;none&quot;,&quot;segment&quot;:10,&quot;curved&quot;:1};fillColor=#fff2cc;strokeColor=#d6b656;" parent="Elu3GBamNisNBWZrPOnw-19" vertex="1">
          <mxGeometry x="360" y="80" width="100" height="30" as="geometry" />
        </mxCell>
        <mxCell id="DxxxkKUG97s_HWiAUXKt-14" value="" style="edgeStyle=orthogonalEdgeStyle;startArrow=none;endArrow=none;segment=10;rounded=0;jumpSize=6;arcSize=40;" parent="Elu3GBamNisNBWZrPOnw-19" source="Elu3GBamNisNBWZrPOnw-24" target="DxxxkKUG97s_HWiAUXKt-15" edge="1">
          <mxGeometry relative="1" as="geometry">
            <mxPoint x="320" y="115" as="sourcePoint" />
          </mxGeometry>
        </mxCell>
        <mxCell id="DxxxkKUG97s_HWiAUXKt-15" value="值域" style="whiteSpace=wrap;html=1;rounded=1;arcSize=50;align=center;verticalAlign=middle;strokeWidth=1;autosize=1;spacing=4;treeFolding=1;treeMoving=1;newEdgeStyle={&quot;edgeStyle&quot;:&quot;entityRelationEdgeStyle&quot;,&quot;startArrow&quot;:&quot;none&quot;,&quot;endArrow&quot;:&quot;none&quot;,&quot;segment&quot;:10,&quot;curved&quot;:1};fillColor=#fff2cc;strokeColor=#d6b656;" parent="Elu3GBamNisNBWZrPOnw-19" vertex="1">
          <mxGeometry x="360" y="120" width="100" height="30" as="geometry" />
        </mxCell>
        <mxCell id="DxxxkKUG97s_HWiAUXKt-16" value="&lt;div&gt;eg：注射类药物，要给出溶媒内容&lt;/div&gt;" style="whiteSpace=wrap;html=1;shape=partialRectangle;top=0;left=0;bottom=1;right=0;points=[[0,1],[1,1]];fillColor=none;align=center;verticalAlign=bottom;routingCenterY=0.5;snapToPoint=1;recursiveResize=0;autosize=1;treeFolding=1;treeMoving=1;newEdgeStyle={&quot;edgeStyle&quot;:&quot;entityRelationEdgeStyle&quot;,&quot;startArrow&quot;:&quot;none&quot;,&quot;endArrow&quot;:&quot;none&quot;,&quot;segment&quot;:10,&quot;curved&quot;:1};fontColor=#000000;" parent="Elu3GBamNisNBWZrPOnw-19" vertex="1">
          <mxGeometry x="490" y="75" width="210" height="20" as="geometry" />
        </mxCell>
        <mxCell id="DxxxkKUG97s_HWiAUXKt-17" value="" style="edgeStyle=entityRelationEdgeStyle;startArrow=none;endArrow=none;segment=10;curved=1;rounded=1;fontColor=#C3ABD0;jumpSize=6;" parent="Elu3GBamNisNBWZrPOnw-19" source="DxxxkKUG97s_HWiAUXKt-11" target="DxxxkKUG97s_HWiAUXKt-16" edge="1">
          <mxGeometry relative="1" as="geometry">
            <mxPoint x="490" y="90" as="sourcePoint" />
          </mxGeometry>
        </mxCell>
        <mxCell id="DxxxkKUG97s_HWiAUXKt-18" value="&lt;div&gt;eg：给药途径：口服、皮下注射、静脉注射、舌下给药等&lt;/div&gt;" style="whiteSpace=wrap;html=1;shape=partialRectangle;top=0;left=0;bottom=1;right=0;points=[[0,1],[1,1]];fillColor=none;align=center;verticalAlign=bottom;routingCenterY=0.5;snapToPoint=1;recursiveResize=0;autosize=1;treeFolding=1;treeMoving=1;newEdgeStyle={&quot;edgeStyle&quot;:&quot;entityRelationEdgeStyle&quot;,&quot;startArrow&quot;:&quot;none&quot;,&quot;endArrow&quot;:&quot;none&quot;,&quot;segment&quot;:10,&quot;curved&quot;:1};fontColor=#000000;" parent="Elu3GBamNisNBWZrPOnw-19" vertex="1">
          <mxGeometry x="490" y="120" width="330" height="20" as="geometry" />
        </mxCell>
        <mxCell id="DxxxkKUG97s_HWiAUXKt-19" value="" style="edgeStyle=entityRelationEdgeStyle;startArrow=none;endArrow=none;segment=10;curved=1;rounded=1;fontColor=#C3ABD0;jumpSize=6;" parent="Elu3GBamNisNBWZrPOnw-19" source="DxxxkKUG97s_HWiAUXKt-15" target="DxxxkKUG97s_HWiAUXKt-18" edge="1">
          <mxGeometry relative="1" as="geometry">
            <mxPoint x="470" y="160" as="sourcePoint" />
            <mxPoint x="660" y="225" as="targetPoint" />
          </mxGeometry>
        </mxCell>
        <mxCell id="DxxxkKUG97s_HWiAUXKt-21" value="知识集合" style="swimlane;fontFamily=Helvetica;fontSize=12;fontColor=rgb(0, 0, 0);align=center;strokeColor=rgb(0, 0, 0);fillColor=#67AB9F;html=1;container=0;startSize=23;" parent="Elu3GBamNisNBWZrPOnw-19" vertex="1">
          <mxGeometry x="120" y="180" width="170" height="90" as="geometry" />
        </mxCell>
        <mxCell id="DxxxkKUG97s_HWiAUXKt-22" value="&lt;div&gt;经过加工处理，对客观&lt;/div&gt;&lt;div&gt;世界规律的总结与抽象，&lt;/div&gt;&lt;div&gt;核心是表达本体之间的关联&lt;/div&gt;" style="text;html=1;align=left;verticalAlign=middle;resizable=0;points=[];autosize=1;strokeColor=none;fillColor=none;" parent="DxxxkKUG97s_HWiAUXKt-21" vertex="1">
          <mxGeometry x="10" y="35" width="160" height="50" as="geometry" />
        </mxCell>
        <mxCell id="DxxxkKUG97s_HWiAUXKt-43" style="edgeStyle=orthogonalEdgeStyle;rounded=1;jumpSize=6;orthogonalLoop=1;jettySize=auto;html=1;fontColor=#000000;arcSize=0;endArrow=none;endFill=0;" parent="Elu3GBamNisNBWZrPOnw-19" source="DxxxkKUG97s_HWiAUXKt-23" target="DxxxkKUG97s_HWiAUXKt-42" edge="1">
          <mxGeometry relative="1" as="geometry" />
        </mxCell>
        <mxCell id="DxxxkKUG97s_HWiAUXKt-23" value="关联的多样" style="whiteSpace=wrap;html=1;rounded=1;arcSize=50;align=center;verticalAlign=middle;strokeWidth=1;autosize=1;spacing=4;treeFolding=1;treeMoving=1;newEdgeStyle={&quot;edgeStyle&quot;:&quot;entityRelationEdgeStyle&quot;,&quot;startArrow&quot;:&quot;none&quot;,&quot;endArrow&quot;:&quot;none&quot;,&quot;segment&quot;:10,&quot;curved&quot;:1};fillColor=#d5e8d4;strokeColor=#82b366;" parent="Elu3GBamNisNBWZrPOnw-19" vertex="1">
          <mxGeometry x="360" y="180" width="100" height="30" as="geometry" />
        </mxCell>
        <mxCell id="DxxxkKUG97s_HWiAUXKt-20" value="" style="edgeStyle=orthogonalEdgeStyle;startArrow=none;endArrow=none;segment=10;rounded=0;arcSize=40;" parent="Elu3GBamNisNBWZrPOnw-19" source="DxxxkKUG97s_HWiAUXKt-21" target="DxxxkKUG97s_HWiAUXKt-23" edge="1">
          <mxGeometry relative="1" as="geometry" />
        </mxCell>
        <mxCell id="DxxxkKUG97s_HWiAUXKt-41" value="&lt;div&gt;控制、约束、保障质量&lt;/div&gt;" style="text;html=1;align=center;verticalAlign=middle;resizable=0;points=[];autosize=1;strokeColor=none;fillColor=none;fontColor=#000000;" parent="Elu3GBamNisNBWZrPOnw-19" vertex="1">
          <mxGeometry x="80" y="150" width="140" height="20" as="geometry" />
        </mxCell>
        <mxCell id="DxxxkKUG97s_HWiAUXKt-42" value="三元组图谱" style="rounded=1;whiteSpace=wrap;html=1;strokeWidth=1;fillColor=#d5e8d4;strokeColor=#82b366;" parent="Elu3GBamNisNBWZrPOnw-19" vertex="1">
          <mxGeometry x="530" y="164" width="100" height="21" as="geometry" />
        </mxCell>
        <mxCell id="DxxxkKUG97s_HWiAUXKt-44" value="树形结构" style="rounded=1;whiteSpace=wrap;html=1;strokeWidth=1;fillColor=#d5e8d4;strokeColor=#82b366;" parent="Elu3GBamNisNBWZrPOnw-19" vertex="1">
          <mxGeometry x="530" y="194" width="100" height="21" as="geometry" />
        </mxCell>
        <mxCell id="DxxxkKUG97s_HWiAUXKt-45" style="edgeStyle=orthogonalEdgeStyle;rounded=1;jumpSize=6;orthogonalLoop=1;jettySize=auto;html=1;fontColor=#000000;arcSize=0;endArrow=none;endFill=0;" parent="Elu3GBamNisNBWZrPOnw-19" source="DxxxkKUG97s_HWiAUXKt-23" target="DxxxkKUG97s_HWiAUXKt-44" edge="1">
          <mxGeometry relative="1" as="geometry">
            <mxPoint x="470" y="205" as="sourcePoint" />
            <mxPoint x="540" y="199.5000000000001" as="targetPoint" />
          </mxGeometry>
        </mxCell>
        <mxCell id="DxxxkKUG97s_HWiAUXKt-46" value="Frame（表单）" style="rounded=1;whiteSpace=wrap;html=1;strokeWidth=1;fillColor=#d5e8d4;strokeColor=#82b366;" parent="Elu3GBamNisNBWZrPOnw-19" vertex="1">
          <mxGeometry x="530" y="224" width="100" height="21" as="geometry" />
        </mxCell>
        <mxCell id="DxxxkKUG97s_HWiAUXKt-47" value="评分量表" style="rounded=1;whiteSpace=wrap;html=1;strokeWidth=1;fillColor=#d5e8d4;strokeColor=#82b366;" parent="Elu3GBamNisNBWZrPOnw-19" vertex="1">
          <mxGeometry x="530" y="254" width="100" height="21" as="geometry" />
        </mxCell>
        <mxCell id="DxxxkKUG97s_HWiAUXKt-48" style="edgeStyle=orthogonalEdgeStyle;rounded=1;jumpSize=6;orthogonalLoop=1;jettySize=auto;html=1;fontColor=#000000;arcSize=0;entryX=0;entryY=0.5;entryDx=0;entryDy=0;endArrow=none;endFill=0;" parent="Elu3GBamNisNBWZrPOnw-19" source="DxxxkKUG97s_HWiAUXKt-23" target="DxxxkKUG97s_HWiAUXKt-46" edge="1">
          <mxGeometry relative="1" as="geometry">
            <mxPoint x="470" y="205" as="sourcePoint" />
            <mxPoint x="540" y="230.5" as="targetPoint" />
          </mxGeometry>
        </mxCell>
        <mxCell id="DxxxkKUG97s_HWiAUXKt-49" style="edgeStyle=orthogonalEdgeStyle;rounded=1;jumpSize=6;orthogonalLoop=1;jettySize=auto;html=1;fontColor=#000000;arcSize=0;entryX=0;entryY=0.5;entryDx=0;entryDy=0;endArrow=none;endFill=0;" parent="Elu3GBamNisNBWZrPOnw-19" source="DxxxkKUG97s_HWiAUXKt-23" target="DxxxkKUG97s_HWiAUXKt-47" edge="1">
          <mxGeometry relative="1" as="geometry">
            <mxPoint x="480" y="215" as="sourcePoint" />
            <mxPoint x="550" y="240.5" as="targetPoint" />
          </mxGeometry>
        </mxCell>
        <mxCell id="DxxxkKUG97s_HWiAUXKt-56" value="事实" style="swimlane;fontFamily=Helvetica;fontSize=12;align=center;strokeColor=#b85450;fillColor=#f8cecc;html=1;container=0;startSize=23;" parent="Elu3GBamNisNBWZrPOnw-19" vertex="1">
          <mxGeometry x="120" y="319" width="170" height="71" as="geometry" />
        </mxCell>
        <mxCell id="DxxxkKUG97s_HWiAUXKt-57" value="HData 中的数据" style="text;html=1;align=left;verticalAlign=middle;resizable=0;points=[];autosize=1;strokeColor=none;fillColor=none;" parent="DxxxkKUG97s_HWiAUXKt-56" vertex="1">
          <mxGeometry x="10" y="40" width="100" height="20" as="geometry" />
        </mxCell>
        <mxCell id="DxxxkKUG97s_HWiAUXKt-59" value="&lt;div&gt;质检、归一、标准化&lt;/div&gt;" style="text;html=1;align=center;verticalAlign=middle;resizable=0;points=[];autosize=1;strokeColor=none;fillColor=none;fontColor=#000000;" parent="Elu3GBamNisNBWZrPOnw-19" vertex="1">
          <mxGeometry x="90" y="289" width="120" height="20" as="geometry" />
        </mxCell>
        <mxCell id="DxxxkKUG97s_HWiAUXKt-51" value="需求的多样" style="whiteSpace=wrap;html=1;rounded=1;arcSize=50;align=center;verticalAlign=middle;strokeWidth=1;autosize=1;spacing=4;treeFolding=1;treeMoving=1;newEdgeStyle={&quot;edgeStyle&quot;:&quot;entityRelationEdgeStyle&quot;,&quot;startArrow&quot;:&quot;none&quot;,&quot;endArrow&quot;:&quot;none&quot;,&quot;segment&quot;:10,&quot;curved&quot;:1};fillColor=#d5e8d4;strokeColor=#82b366;" parent="Elu3GBamNisNBWZrPOnw-19" vertex="1">
          <mxGeometry x="360" y="289" width="100" height="30" as="geometry" />
        </mxCell>
        <mxCell id="DxxxkKUG97s_HWiAUXKt-50" value="" style="edgeStyle=orthogonalEdgeStyle;startArrow=none;endArrow=none;segment=10;rounded=0;arcSize=40;entryX=0;entryY=0.5;entryDx=0;entryDy=0;" parent="Elu3GBamNisNBWZrPOnw-19" source="DxxxkKUG97s_HWiAUXKt-21" target="DxxxkKUG97s_HWiAUXKt-51" edge="1">
          <mxGeometry relative="1" as="geometry">
            <mxPoint x="320" y="256" as="sourcePoint" />
          </mxGeometry>
        </mxCell>
        <mxCell id="dQ_sZXhrT5kV8hx1NSOp-16" value="" style="html=1;shadow=0;dashed=0;align=center;verticalAlign=middle;shape=mxgraph.arrows2.uTurnArrow;dy=7;arrowHead=40;dx2=15;flipV=1;" parent="Elu3GBamNisNBWZrPOnw-19" vertex="1">
          <mxGeometry x="60" y="254" width="60" height="105" as="geometry" />
        </mxCell>
        <mxCell id="dQ_sZXhrT5kV8hx1NSOp-17" value="" style="html=1;shadow=0;dashed=0;align=center;verticalAlign=middle;shape=mxgraph.arrows2.uTurnArrow;dy=7;arrowHead=40;dx2=15;flipV=1;" parent="Elu3GBamNisNBWZrPOnw-19" vertex="1">
          <mxGeometry x="60" y="119" width="60" height="105" as="geometry" />
        </mxCell>
      </root>
    </mxGraphModel>
  </diagram>
  <diagram id="KTzYICPfw4q1XGl3ZIBY" name="Page-2">
    <mxGraphModel dx="631" dy="393" grid="1" gridSize="10" guides="1" tooltips="1" connect="1" arrows="1" fold="1" page="0" pageScale="1" pageWidth="827" pageHeight="1169" math="0" shadow="0">
      <root>
        <mxCell id="5-wVpHgIYCvD5tO6Q7Gx-0" />
        <mxCell id="5-wVpHgIYCvD5tO6Q7Gx-1" parent="5-wVpHgIYCvD5tO6Q7Gx-0" />
        <mxCell id="G7_NN15ntJY5N_Q-a0-s-4" value="数据抽取" style="swimlane;rounded=0;whiteSpace=wrap;html=1;container=1;" vertex="1" parent="5-wVpHgIYCvD5tO6Q7Gx-1">
          <mxGeometry x="80" y="130" width="500" height="240" as="geometry" />
        </mxCell>
        <mxCell id="G7_NN15ntJY5N_Q-a0-s-5" value="NER" style="rounded=0;whiteSpace=wrap;html=1;treeMoving=1;treeFolding=1;fillColor=#D4E1F5;" vertex="1" parent="G7_NN15ntJY5N_Q-a0-s-4">
          <mxGeometry x="100" y="75" width="80" height="30" as="geometry" />
        </mxCell>
        <mxCell id="G7_NN15ntJY5N_Q-a0-s-22" style="edgeStyle=none;rounded=0;orthogonalLoop=1;jettySize=auto;html=1;exitX=1;exitY=0.5;exitDx=0;exitDy=0;entryX=0;entryY=0.5;entryDx=0;entryDy=0;" edge="1" parent="G7_NN15ntJY5N_Q-a0-s-4" source="G7_NN15ntJY5N_Q-a0-s-6" target="G7_NN15ntJY5N_Q-a0-s-20">
          <mxGeometry relative="1" as="geometry" />
        </mxCell>
        <mxCell id="G7_NN15ntJY5N_Q-a0-s-6" value="规则与模板" style="whiteSpace=wrap;html=1;rounded=1;arcSize=50;align=left;verticalAlign=middle;strokeWidth=1;autosize=1;spacing=4;treeFolding=0;treeMoving=1;newEdgeStyle={&quot;edgeStyle&quot;:&quot;entityRelationEdgeStyle&quot;,&quot;startArrow&quot;:&quot;none&quot;,&quot;endArrow&quot;:&quot;none&quot;,&quot;segment&quot;:10,&quot;curved&quot;:1};fontFamily=Helvetica;fontSize=12;strokeColor=#9673a6;recursiveResize=0;fillColor=#FFB570;" vertex="1" parent="G7_NN15ntJY5N_Q-a0-s-4">
          <mxGeometry x="210" y="40" width="90" height="20" as="geometry" />
        </mxCell>
        <mxCell id="G7_NN15ntJY5N_Q-a0-s-7" value="" style="edgeStyle=entityRelationEdgeStyle;startArrow=none;endArrow=none;segment=10;curved=1;rounded=0;" edge="1" target="G7_NN15ntJY5N_Q-a0-s-6" parent="G7_NN15ntJY5N_Q-a0-s-4" source="G7_NN15ntJY5N_Q-a0-s-5">
          <mxGeometry relative="1" as="geometry">
            <mxPoint x="190" y="85" as="sourcePoint" />
          </mxGeometry>
        </mxCell>
        <mxCell id="G7_NN15ntJY5N_Q-a0-s-9" value="基于统计" style="whiteSpace=wrap;html=1;rounded=1;arcSize=50;align=left;verticalAlign=middle;strokeWidth=1;autosize=1;spacing=4;treeFolding=0;treeMoving=1;newEdgeStyle={&quot;edgeStyle&quot;:&quot;entityRelationEdgeStyle&quot;,&quot;startArrow&quot;:&quot;none&quot;,&quot;endArrow&quot;:&quot;none&quot;,&quot;segment&quot;:10,&quot;curved&quot;:1};fontFamily=Helvetica;fontSize=12;strokeColor=#9673a6;recursiveResize=0;fillColor=#FFB570;" vertex="1" parent="G7_NN15ntJY5N_Q-a0-s-4">
          <mxGeometry x="210" y="80" width="90" height="20" as="geometry" />
        </mxCell>
        <mxCell id="G7_NN15ntJY5N_Q-a0-s-10" value="" style="edgeStyle=entityRelationEdgeStyle;startArrow=none;endArrow=none;segment=10;curved=1;rounded=0;" edge="1" target="G7_NN15ntJY5N_Q-a0-s-9" parent="G7_NN15ntJY5N_Q-a0-s-4" source="G7_NN15ntJY5N_Q-a0-s-5">
          <mxGeometry relative="1" as="geometry">
            <mxPoint x="190" y="120" as="sourcePoint" />
          </mxGeometry>
        </mxCell>
        <mxCell id="G7_NN15ntJY5N_Q-a0-s-11" value="基于深度学习" style="whiteSpace=wrap;html=1;rounded=1;arcSize=50;align=left;verticalAlign=middle;strokeWidth=1;autosize=1;spacing=4;treeFolding=0;treeMoving=1;newEdgeStyle={&quot;edgeStyle&quot;:&quot;entityRelationEdgeStyle&quot;,&quot;startArrow&quot;:&quot;none&quot;,&quot;endArrow&quot;:&quot;none&quot;,&quot;segment&quot;:10,&quot;curved&quot;:1};fontFamily=Helvetica;fontSize=12;strokeColor=#9673a6;recursiveResize=0;fillColor=#FFB570;" vertex="1" parent="G7_NN15ntJY5N_Q-a0-s-4">
          <mxGeometry x="210" y="120" width="90" height="20" as="geometry" />
        </mxCell>
        <mxCell id="G7_NN15ntJY5N_Q-a0-s-12" value="" style="edgeStyle=entityRelationEdgeStyle;startArrow=none;endArrow=none;segment=10;curved=1;rounded=0;" edge="1" target="G7_NN15ntJY5N_Q-a0-s-11" parent="G7_NN15ntJY5N_Q-a0-s-4" source="G7_NN15ntJY5N_Q-a0-s-5">
          <mxGeometry relative="1" as="geometry">
            <mxPoint x="190" y="160" as="sourcePoint" />
          </mxGeometry>
        </mxCell>
        <mxCell id="G7_NN15ntJY5N_Q-a0-s-15" value="远程监督" style="whiteSpace=wrap;html=1;rounded=1;arcSize=50;align=center;verticalAlign=middle;strokeWidth=1;autosize=1;spacing=4;treeFolding=0;treeMoving=1;newEdgeStyle={&quot;edgeStyle&quot;:&quot;entityRelationEdgeStyle&quot;,&quot;startArrow&quot;:&quot;none&quot;,&quot;endArrow&quot;:&quot;none&quot;,&quot;segment&quot;:10,&quot;curved&quot;:1};fillColor=#d5e8d4;strokeColor=#82b366;" vertex="1" parent="G7_NN15ntJY5N_Q-a0-s-4">
          <mxGeometry x="332" y="120" width="90" height="20" as="geometry" />
        </mxCell>
        <mxCell id="G7_NN15ntJY5N_Q-a0-s-16" value="" style="edgeStyle=entityRelationEdgeStyle;startArrow=none;endArrow=none;segment=10;curved=1;rounded=0;" edge="1" target="G7_NN15ntJY5N_Q-a0-s-15" parent="G7_NN15ntJY5N_Q-a0-s-4" source="G7_NN15ntJY5N_Q-a0-s-11">
          <mxGeometry relative="1" as="geometry">
            <mxPoint x="360" y="157" as="sourcePoint" />
          </mxGeometry>
        </mxCell>
        <mxCell id="G7_NN15ntJY5N_Q-a0-s-24" style="edgeStyle=none;rounded=0;orthogonalLoop=1;jettySize=auto;html=1;exitX=1;exitY=0.5;exitDx=0;exitDy=0;" edge="1" parent="G7_NN15ntJY5N_Q-a0-s-4" source="G7_NN15ntJY5N_Q-a0-s-17" target="G7_NN15ntJY5N_Q-a0-s-23">
          <mxGeometry relative="1" as="geometry" />
        </mxCell>
        <mxCell id="G7_NN15ntJY5N_Q-a0-s-41" style="edgeStyle=orthogonalEdgeStyle;rounded=0;orthogonalLoop=1;jettySize=auto;html=1;exitX=1;exitY=0.5;exitDx=0;exitDy=0;entryX=0;entryY=0.5;entryDx=0;entryDy=0;" edge="1" parent="G7_NN15ntJY5N_Q-a0-s-4" source="G7_NN15ntJY5N_Q-a0-s-17" target="G7_NN15ntJY5N_Q-a0-s-40">
          <mxGeometry relative="1" as="geometry" />
        </mxCell>
        <mxCell id="G7_NN15ntJY5N_Q-a0-s-17" value="事件挖掘" style="rounded=0;whiteSpace=wrap;html=1;treeMoving=1;treeFolding=1;fillColor=#D4E1F5;" vertex="1" parent="G7_NN15ntJY5N_Q-a0-s-4">
          <mxGeometry x="100" y="160" width="80" height="30" as="geometry" />
        </mxCell>
        <mxCell id="G7_NN15ntJY5N_Q-a0-s-20" value="财政帮扶政策结构化" style="shape=process;whiteSpace=wrap;html=1;backgroundOutline=1;fillColor=#fff2cc;strokeColor=#d6b656;" vertex="1" parent="G7_NN15ntJY5N_Q-a0-s-4">
          <mxGeometry x="332" y="40" width="140" height="20" as="geometry" />
        </mxCell>
        <mxCell id="G7_NN15ntJY5N_Q-a0-s-23" value="舆情事件脉络挖掘" style="shape=process;whiteSpace=wrap;html=1;backgroundOutline=1;fillColor=#fff2cc;strokeColor=#d6b656;" vertex="1" parent="G7_NN15ntJY5N_Q-a0-s-4">
          <mxGeometry x="230" y="165" width="140" height="20" as="geometry" />
        </mxCell>
        <mxCell id="G7_NN15ntJY5N_Q-a0-s-40" value="特定医疗状态挖掘" style="shape=process;whiteSpace=wrap;html=1;backgroundOutline=1;" vertex="1" parent="G7_NN15ntJY5N_Q-a0-s-4">
          <mxGeometry x="230" y="200" width="140" height="20" as="geometry" />
        </mxCell>
        <mxCell id="G7_NN15ntJY5N_Q-a0-s-45" value="政&lt;br&gt;策&lt;br&gt;标&lt;br&gt;准" style="shape=cylinder3;whiteSpace=wrap;html=1;boundedLbl=1;backgroundOutline=1;size=15;fillColor=#E6E6E6;" vertex="1" parent="G7_NN15ntJY5N_Q-a0-s-4">
          <mxGeometry x="20" y="130" width="50" height="100" as="geometry" />
        </mxCell>
        <mxCell id="G7_NN15ntJY5N_Q-a0-s-42" value="业&lt;br&gt;务&lt;br&gt;数&lt;br&gt;据" style="shape=cylinder3;whiteSpace=wrap;html=1;boundedLbl=1;backgroundOutline=1;size=15;fillColor=#E6E6E6;" vertex="1" parent="G7_NN15ntJY5N_Q-a0-s-4">
          <mxGeometry x="20" y="40" width="50" height="100" as="geometry" />
        </mxCell>
        <mxCell id="G7_NN15ntJY5N_Q-a0-s-59" value="Bert+CRF" style="whiteSpace=wrap;html=1;rounded=1;arcSize=50;align=center;verticalAlign=middle;strokeWidth=1;autosize=1;spacing=4;treeFolding=0;treeMoving=1;newEdgeStyle={&quot;edgeStyle&quot;:&quot;entityRelationEdgeStyle&quot;,&quot;startArrow&quot;:&quot;none&quot;,&quot;endArrow&quot;:&quot;none&quot;,&quot;segment&quot;:10,&quot;curved&quot;:1};fillColor=#d5e8d4;strokeColor=#82b366;" vertex="1" parent="G7_NN15ntJY5N_Q-a0-s-4">
          <mxGeometry x="332" y="80" width="90" height="20" as="geometry" />
        </mxCell>
        <mxCell id="G7_NN15ntJY5N_Q-a0-s-60" value="" style="edgeStyle=entityRelationEdgeStyle;startArrow=none;endArrow=none;segment=10;curved=1;rounded=0;" edge="1" parent="G7_NN15ntJY5N_Q-a0-s-4" source="G7_NN15ntJY5N_Q-a0-s-11" target="G7_NN15ntJY5N_Q-a0-s-59">
          <mxGeometry relative="1" as="geometry">
            <mxPoint x="310" y="140" as="sourcePoint" />
            <mxPoint x="342" y="140" as="targetPoint" />
          </mxGeometry>
        </mxCell>
        <mxCell id="G7_NN15ntJY5N_Q-a0-s-25" value="专家整理" style="swimlane;rounded=0;whiteSpace=wrap;html=1;container=1;" vertex="1" parent="5-wVpHgIYCvD5tO6Q7Gx-1">
          <mxGeometry x="80" y="390" width="500" height="160" as="geometry" />
        </mxCell>
        <mxCell id="G7_NN15ntJY5N_Q-a0-s-47" value="指&lt;br&gt;南&lt;br&gt;文&lt;br&gt;献" style="shape=cylinder3;whiteSpace=wrap;html=1;boundedLbl=1;backgroundOutline=1;size=15;fillColor=#E6E6E6;" vertex="1" parent="G7_NN15ntJY5N_Q-a0-s-25">
          <mxGeometry x="90" y="40" width="50" height="100" as="geometry" />
        </mxCell>
        <mxCell id="G7_NN15ntJY5N_Q-a0-s-28" value="人工标注" style="whiteSpace=wrap;html=1;rounded=1;arcSize=50;align=left;verticalAlign=middle;strokeWidth=1;autosize=1;spacing=4;treeFolding=0;treeMoving=1;newEdgeStyle={&quot;edgeStyle&quot;:&quot;entityRelationEdgeStyle&quot;,&quot;startArrow&quot;:&quot;none&quot;,&quot;endArrow&quot;:&quot;none&quot;,&quot;segment&quot;:10,&quot;curved&quot;:1};fontFamily=Helvetica;fontSize=12;strokeColor=#9673a6;recursiveResize=0;fillColor=#FFB570;" vertex="1" parent="G7_NN15ntJY5N_Q-a0-s-25">
          <mxGeometry x="280" y="46" width="70" height="20" as="geometry" />
        </mxCell>
        <mxCell id="G7_NN15ntJY5N_Q-a0-s-46" value="医&lt;br&gt;学&lt;br&gt;教&lt;br&gt;材" style="shape=cylinder3;whiteSpace=wrap;html=1;boundedLbl=1;backgroundOutline=1;size=15;fillColor=#E6E6E6;" vertex="1" parent="G7_NN15ntJY5N_Q-a0-s-25">
          <mxGeometry x="20" y="40" width="50" height="100" as="geometry" />
        </mxCell>
        <mxCell id="G7_NN15ntJY5N_Q-a0-s-48" value="专家整理" style="rounded=0;whiteSpace=wrap;html=1;treeMoving=1;treeFolding=1;fillColor=#D4E1F5;" vertex="1" parent="G7_NN15ntJY5N_Q-a0-s-25">
          <mxGeometry x="160" y="78" width="80" height="30" as="geometry" />
        </mxCell>
        <mxCell id="G7_NN15ntJY5N_Q-a0-s-58" style="edgeStyle=orthogonalEdgeStyle;rounded=0;orthogonalLoop=1;jettySize=auto;html=1;exitX=1;exitY=0.5;exitDx=0;exitDy=0;" edge="1" parent="G7_NN15ntJY5N_Q-a0-s-25" source="G7_NN15ntJY5N_Q-a0-s-49" target="G7_NN15ntJY5N_Q-a0-s-57">
          <mxGeometry relative="1" as="geometry" />
        </mxCell>
        <mxCell id="G7_NN15ntJY5N_Q-a0-s-49" value="交叉校验" style="whiteSpace=wrap;html=1;rounded=1;arcSize=50;align=left;verticalAlign=middle;strokeWidth=1;autosize=1;spacing=4;treeFolding=0;treeMoving=1;newEdgeStyle={&quot;edgeStyle&quot;:&quot;entityRelationEdgeStyle&quot;,&quot;startArrow&quot;:&quot;none&quot;,&quot;endArrow&quot;:&quot;none&quot;,&quot;segment&quot;:10,&quot;curved&quot;:1};fontFamily=Helvetica;fontSize=12;strokeColor=#9673a6;recursiveResize=0;fillColor=#FFB570;" vertex="1" parent="G7_NN15ntJY5N_Q-a0-s-25">
          <mxGeometry x="280" y="83" width="70" height="20" as="geometry" />
        </mxCell>
        <mxCell id="G7_NN15ntJY5N_Q-a0-s-55" style="edgeStyle=orthogonalEdgeStyle;rounded=0;orthogonalLoop=1;jettySize=auto;html=1;exitX=1;exitY=0.5;exitDx=0;exitDy=0;" edge="1" parent="G7_NN15ntJY5N_Q-a0-s-25" source="G7_NN15ntJY5N_Q-a0-s-50" target="G7_NN15ntJY5N_Q-a0-s-54">
          <mxGeometry relative="1" as="geometry" />
        </mxCell>
        <mxCell id="G7_NN15ntJY5N_Q-a0-s-50" value="知识整理" style="whiteSpace=wrap;html=1;rounded=1;arcSize=50;align=left;verticalAlign=middle;strokeWidth=1;autosize=1;spacing=4;treeFolding=0;treeMoving=1;newEdgeStyle={&quot;edgeStyle&quot;:&quot;entityRelationEdgeStyle&quot;,&quot;startArrow&quot;:&quot;none&quot;,&quot;endArrow&quot;:&quot;none&quot;,&quot;segment&quot;:10,&quot;curved&quot;:1};fontFamily=Helvetica;fontSize=12;strokeColor=#9673a6;recursiveResize=0;fillColor=#FFB570;" vertex="1" parent="G7_NN15ntJY5N_Q-a0-s-25">
          <mxGeometry x="280" y="120" width="70" height="20" as="geometry" />
        </mxCell>
        <mxCell id="G7_NN15ntJY5N_Q-a0-s-51" value="" style="edgeStyle=entityRelationEdgeStyle;startArrow=none;endArrow=none;segment=10;curved=1;rounded=0;" edge="1" parent="G7_NN15ntJY5N_Q-a0-s-25" source="G7_NN15ntJY5N_Q-a0-s-48" target="G7_NN15ntJY5N_Q-a0-s-28">
          <mxGeometry relative="1" as="geometry">
            <mxPoint x="190" y="-160" as="sourcePoint" />
            <mxPoint x="220" y="-120" as="targetPoint" />
          </mxGeometry>
        </mxCell>
        <mxCell id="G7_NN15ntJY5N_Q-a0-s-52" value="" style="edgeStyle=entityRelationEdgeStyle;startArrow=none;endArrow=none;segment=10;curved=1;rounded=0;" edge="1" parent="G7_NN15ntJY5N_Q-a0-s-25" source="G7_NN15ntJY5N_Q-a0-s-48" target="G7_NN15ntJY5N_Q-a0-s-49">
          <mxGeometry relative="1" as="geometry">
            <mxPoint x="250" y="100" as="sourcePoint" />
            <mxPoint x="310" y="54.999999999999886" as="targetPoint" />
          </mxGeometry>
        </mxCell>
        <mxCell id="G7_NN15ntJY5N_Q-a0-s-53" value="" style="edgeStyle=entityRelationEdgeStyle;startArrow=none;endArrow=none;segment=10;curved=1;rounded=0;" edge="1" parent="G7_NN15ntJY5N_Q-a0-s-25" source="G7_NN15ntJY5N_Q-a0-s-48" target="G7_NN15ntJY5N_Q-a0-s-50">
          <mxGeometry relative="1" as="geometry">
            <mxPoint x="260" y="110" as="sourcePoint" />
            <mxPoint x="320" y="64.99999999999989" as="targetPoint" />
          </mxGeometry>
        </mxCell>
        <mxCell id="G7_NN15ntJY5N_Q-a0-s-54" value="慢病处方" style="shape=process;whiteSpace=wrap;html=1;backgroundOutline=1;fillColor=#fff2cc;strokeColor=#d6b656;" vertex="1" parent="G7_NN15ntJY5N_Q-a0-s-25">
          <mxGeometry x="390" y="120" width="100" height="20" as="geometry" />
        </mxCell>
        <mxCell id="G7_NN15ntJY5N_Q-a0-s-57" value="挖掘验证" style="shape=process;whiteSpace=wrap;html=1;backgroundOutline=1;fillColor=#fff2cc;strokeColor=#d6b656;" vertex="1" parent="G7_NN15ntJY5N_Q-a0-s-25">
          <mxGeometry x="390" y="83" width="100" height="20" as="geometry" />
        </mxCell>
      </root>
    </mxGraphModel>
  </diagram>
</mxfile>
